<svg width="132" height="86" viewBox="0 0 132 86" fill="none" xmlns="http://www.w3.org/2000/svg">
<path d="M22.0052 8.46685C22.2995 8.25901 22.5939 8.12046 22.8883 8.05118C23.1827 7.9819 23.477 7.9819 23.7714 7.9819H28.7757C29.1436 7.9819 29.5116 8.05118 29.8059 8.18974C30.1003 8.3283 30.3211 8.53613 30.5419 8.74396C30.7626 8.9518 30.9098 9.22891 30.9834 9.50602C31.057 9.78314 31.2042 10.0603 31.3514 10.4066L32.0137 13.1085C32.3081 12.485 32.8232 11.7922 33.412 11.1687C34.0007 10.4759 34.8102 9.85242 35.7669 9.29819C36.7236 8.74397 37.8275 8.25902 39.1521 7.91263C40.4768 7.56624 41.9486 7.3584 43.7149 7.3584C45.1131 7.3584 46.3642 7.49695 47.4681 7.77407C48.5719 8.05118 49.6022 8.39758 50.5589 8.88252C51.5156 9.36747 52.3251 9.99097 53.0611 10.753C53.797 11.5151 54.5329 12.3464 55.1952 13.2471C55.6368 12.6235 56.2255 11.9308 57.035 11.238C57.8445 10.5452 58.8012 9.9217 59.9787 9.29819C61.0826 8.74397 62.4073 8.25902 63.8055 7.91263C65.2038 7.56624 66.6756 7.3584 68.2946 7.3584C70.7968 7.3584 72.9309 7.84335 74.8443 8.74396C76.6841 9.64458 78.2296 10.8916 79.4806 12.4157C80.7317 13.9398 81.6148 15.8104 82.2771 17.8887C82.8659 19.967 83.1602 22.184 83.1602 24.5394V44.6994C83.1602 45.4614 83.0131 46.085 82.6451 46.5006C82.2771 46.9163 81.6884 47.1241 80.9525 47.1241H73.3725C72.4158 47.1241 71.7535 46.9856 71.4591 46.7085C71.0911 46.4313 70.9439 45.8078 70.9439 44.9765V24.6087C70.9439 23.7081 70.7968 22.8767 70.5024 22.1147C70.208 21.3526 69.7665 20.6598 69.2513 20.1056C68.7362 19.5514 68.0738 19.0664 67.3379 18.7893C66.602 18.4429 65.7189 18.3044 64.8358 18.3044C64.0263 18.3044 63.2168 18.4429 62.4809 18.7893C61.7449 19.0664 61.0826 19.5514 60.4939 20.0363C59.9051 20.5906 59.4636 21.2141 59.1692 21.9761C58.8012 22.7382 58.6541 23.5695 58.6541 24.5394V44.6994C58.6541 45.4614 58.5069 46.085 58.1389 46.5006C57.7709 46.9163 57.1822 47.1241 56.4463 47.1241H55.784H55.2688H48.6455C47.6888 47.1241 47.0265 46.9856 46.7321 46.7085C46.3642 46.4313 46.217 45.8078 46.217 44.9765V24.6087C46.217 23.7081 46.0698 22.8767 45.7754 22.1147C45.4811 21.3526 45.1131 20.6598 44.598 20.1056C44.0828 19.5514 43.4941 19.0664 42.7582 18.7893C42.0222 18.4429 41.2127 18.3044 40.256 18.3044C39.4465 18.3044 38.7106 18.4429 37.9747 18.72C37.2387 18.9971 36.5764 19.4128 35.9141 19.967C35.3254 20.5213 34.8102 21.1448 34.4422 21.9068C34.0743 22.6689 33.7799 23.5002 33.7063 24.4009V44.7687C33.7063 45.1151 33.6327 45.4615 33.4856 45.8078C33.3384 46.1542 33.1176 46.4313 32.8232 46.6392C32.5289 46.7777 32.2345 46.9163 32.0137 46.9856C31.7929 47.0549 31.4986 47.0548 31.1306 47.0548H23.7714C22.8147 47.0548 22.1524 46.847 21.7108 46.4313C21.2693 46.0157 21.1221 45.3922 21.1221 44.6994V10.1988C21.1221 9.78314 21.1957 9.43675 21.4164 9.09036C21.6372 8.74396 21.858 8.53613 22.1524 8.3283L22.0052 8.46685Z" fill="#253141"/>
<path d="M88.3838 27.5046C88.3838 25.6341 88.6046 23.7636 89.1197 22.0317C89.6349 20.2997 90.3708 18.637 91.2539 17.1822C92.2106 15.6581 93.3145 14.3418 94.5655 13.0948C95.8902 11.8478 97.2884 10.8086 98.9075 9.97724C100.526 9.14591 102.219 8.45312 104.059 7.96817C105.899 7.48323 107.812 7.27539 109.873 7.27539C112.816 7.27539 115.613 7.76034 118.262 8.79951C120.838 9.83868 123.119 11.2935 125.106 13.0948C127.093 14.896 128.565 17.0436 129.669 19.5376C130.773 21.9624 131.362 24.6642 131.362 27.5046C131.362 29.3752 131.141 31.1764 130.626 32.9776C130.111 34.7096 129.375 36.303 128.491 37.8271C127.535 39.3512 126.431 40.6675 125.18 41.9145C123.855 43.1615 122.457 44.2007 120.838 45.0321C119.219 45.9327 117.526 46.5562 115.686 47.0411C113.847 47.5261 111.933 47.7339 109.946 47.7339C107.959 47.7339 106.046 47.5261 104.132 47.0411C102.293 46.5562 100.6 45.8634 98.981 45.0321C97.362 44.1314 95.9638 43.0923 94.6391 41.9145C93.3145 40.6675 92.2106 39.3512 91.3275 37.8271C90.3708 36.303 89.7085 34.7096 89.1933 32.9776C88.6046 31.2457 88.3838 29.4444 88.3838 27.5046ZM100.306 27.5046C100.306 28.8902 100.526 30.1372 100.968 31.315C101.41 32.4927 102.072 33.5319 102.881 34.3632C103.691 35.1945 104.721 35.8873 105.899 36.4415C107.076 36.9265 108.401 37.2036 109.873 37.2036C111.271 37.2036 112.596 36.9265 113.699 36.4415C114.877 35.9566 115.834 35.2638 116.643 34.3632C117.453 33.5319 118.041 32.4927 118.483 31.315C118.925 30.1372 119.145 28.8902 119.145 27.5046C119.145 26.1884 118.925 24.9414 118.483 23.7636C118.041 22.5859 117.453 21.5467 116.643 20.6461C115.834 19.7455 114.877 19.0527 113.699 18.4985C112.522 17.9442 111.271 17.7364 109.873 17.7364C108.401 17.7364 107.076 18.0135 105.899 18.4985C104.721 19.0527 103.765 19.7455 102.881 20.6461C102.072 21.5467 101.41 22.5859 100.968 23.7636C100.526 24.9414 100.306 26.1884 100.306 27.5046Z" fill="#253141"/>
<path d="M9.34622 83.4895C9.27263 83.6973 9.12545 83.9051 9.05185 84.0437C8.97826 84.1822 8.90467 84.3208 8.83108 84.4594C8.75749 84.5979 8.61031 84.6672 8.46312 84.7365C8.31594 84.8058 8.16875 84.8057 7.94798 84.8057H4.34196C3.38526 84.8057 2.87012 84.3901 2.87012 83.4895V58.0643C2.87012 57.8565 2.94371 57.7179 3.0173 57.5101C3.09089 57.3023 3.16449 57.233 3.31167 57.0944C3.45886 56.9559 3.60604 56.8866 3.75322 56.8173C3.90041 56.7481 4.04759 56.748 4.26837 56.748H8.38953C8.83108 56.748 9.19904 56.8866 9.49341 57.0944C9.78778 57.3023 9.86137 57.6487 9.86137 57.9951V65.0614C10.2293 64.715 10.5973 64.4379 10.9653 64.0915C11.3332 63.8144 11.7748 63.5373 12.2163 63.3988C12.6579 63.1909 13.173 63.0524 13.6882 62.9138C14.2033 62.7753 14.8656 62.7753 15.528 62.7753C17.147 62.7753 18.6924 63.0524 20.0907 63.6066C21.4889 64.1608 22.6664 64.9922 23.6231 65.9621C24.6534 67.0012 25.3893 68.179 25.978 69.4953C26.5668 70.8808 26.7876 72.3357 26.7876 73.9291C26.7876 75.5225 26.4932 76.9773 25.978 78.2936C25.3893 79.6792 24.6534 80.8569 23.6231 81.8268C22.5928 82.7967 21.4153 83.628 20.0907 84.1822C18.766 84.7365 17.2206 85.0829 15.528 85.0829C14.9392 85.0829 14.3505 85.0136 13.7618 84.875C13.173 84.7365 12.6579 84.5286 12.1427 84.3208C11.6276 84.113 11.186 83.8359 10.7445 83.4895C10.3029 83.2124 9.93496 82.866 9.64059 82.5888L9.34622 83.4895ZM20.2379 73.9983C20.2379 73.3056 20.0907 72.6128 19.8699 71.92C19.6491 71.2272 19.2812 70.673 18.8396 70.188C18.3981 69.7031 17.8093 69.2874 17.2206 69.0103C16.6318 68.7332 15.8959 68.5946 15.0864 68.5946C14.2769 68.5946 13.541 68.7332 12.8786 69.0103C12.2163 69.2874 11.554 69.7031 11.1124 70.188C10.5973 70.673 10.2293 71.2965 9.93496 71.92C9.6406 72.6128 9.49341 73.3056 9.49341 73.9983V74.2062C9.49341 74.899 9.71419 75.5917 10.0086 76.2152C10.3029 76.8387 10.7445 77.393 11.2596 77.8086C11.7748 78.2936 12.3635 78.64 13.0258 78.9171C13.6882 79.1942 14.4241 79.3328 15.16 79.3328C15.9695 79.3328 16.7054 79.1942 17.2942 78.9171C17.9565 78.64 18.4716 78.2936 18.9132 77.8086C19.3548 77.3237 19.7227 76.7695 19.9435 76.146C20.1643 75.5225 20.2379 74.7604 20.2379 73.9983Z" fill="#253141"/>
<path d="M54.0904 83.4768C54.0904 83.6847 54.0904 83.8232 54.0168 84.0311C53.9432 84.2389 53.796 84.3775 53.6488 84.4467C53.5016 84.5853 53.3544 84.6546 53.2073 84.6546C53.0601 84.6546 52.8393 84.7238 52.7657 84.7238H49.2333C49.0125 84.7238 48.7917 84.7238 48.6445 84.6546C48.4974 84.5853 48.3502 84.516 48.2766 84.3775C48.203 84.2389 48.1294 84.1003 48.0558 83.9618C47.9822 83.8232 47.9086 83.6154 47.835 83.4076L47.6143 82.6455C47.3199 82.9226 46.9519 83.269 46.5104 83.5461C46.0688 83.8232 45.6273 84.1003 45.1121 84.3082C44.597 84.516 44.0818 84.7238 43.4931 84.8624C42.9044 85.001 42.3156 85.0702 41.7269 85.0702C40.623 85.0702 39.5927 84.9317 38.5624 84.6546C37.5321 84.3775 36.649 84.0311 35.7659 83.5461C34.8828 83.0612 34.0733 82.5069 33.411 81.8142C32.6751 81.1214 32.0863 80.3593 31.5712 79.528C31.056 78.6966 30.6881 77.796 30.3937 76.8261C30.0993 75.8562 29.9521 74.8863 29.9521 73.8472C29.9521 72.2538 30.2465 70.7989 30.9088 69.4133C31.4976 68.0278 32.3807 66.8501 33.411 65.8802C34.4413 64.841 35.6923 64.0789 37.1642 63.5247C38.5624 62.9705 40.1079 62.6934 41.8005 62.6934C42.5364 62.6934 43.2723 62.7626 43.8611 62.9012C44.5234 63.0398 45.1121 63.2476 45.6273 63.5247C46.1424 63.8018 46.6576 64.1482 47.0991 64.4946C47.5407 64.841 47.9086 65.2567 48.203 65.7416L48.7181 64.2175C48.8653 63.9404 48.9389 63.7325 49.0125 63.5247C49.0861 63.3169 49.1597 63.2476 49.2333 63.109C49.3069 63.0398 49.4541 62.9705 49.6012 62.9705C49.7484 62.9705 49.8956 62.9012 50.19 62.9012H52.9129C53.0601 62.9012 53.2073 62.9012 53.3544 62.9705C53.5016 62.9705 53.7224 63.109 53.796 63.1783C53.9432 63.3169 54.0904 63.4554 54.164 63.594C54.2375 63.7325 54.2375 63.9404 54.2375 64.1482V83.4768H54.0904ZM36.2075 73.9857C36.2075 74.7478 36.3547 75.4406 36.5754 76.0641C36.7962 76.6876 37.1642 77.3111 37.6057 77.7267C38.0473 78.2117 38.636 78.5581 39.2248 78.8352C39.8871 79.1123 40.5494 79.2509 41.3589 79.2509C42.1684 79.2509 42.9044 79.1123 43.6403 78.8352C44.3026 78.5581 44.9649 78.2117 45.4801 77.7267C45.9952 77.2418 46.3632 76.6876 46.6576 76.0641C46.9519 75.4406 47.0991 74.6785 47.0991 73.9857C47.0991 73.2929 46.9519 72.6002 46.6576 71.9074C46.3632 71.2146 45.9952 70.6604 45.4801 70.1754C44.9649 69.6905 44.3762 69.2748 43.6403 68.9977C42.9044 68.7206 42.1684 68.582 41.3589 68.582C40.5494 68.582 39.8871 68.7206 39.2248 68.9977C38.5624 69.2748 38.0473 69.6905 37.6057 70.1754C37.1642 70.6604 36.7962 71.2839 36.5754 71.9074C36.3547 72.5309 36.2075 73.2237 36.2075 73.9857Z" fill="#253141"/>
<path d="M58.8733 63.4414C59.0204 63.3028 59.1676 63.2335 59.3884 63.2335C59.5356 63.2335 59.7564 63.1643 59.9036 63.1643H62.6265C62.8472 63.1643 62.9944 63.2335 63.2152 63.3028C63.3624 63.3721 63.5096 63.5107 63.5832 63.5799C63.6568 63.6492 63.8039 63.857 63.8775 63.9956C63.9511 64.1342 64.0247 64.342 64.0983 64.4806L64.4663 66.0047C64.6135 65.6583 64.9078 65.3119 65.3494 64.8962C65.7173 64.5498 66.2325 64.2034 66.8212 63.857C67.41 63.5799 68.0723 63.3028 68.8818 63.095C69.6913 62.8872 70.5744 62.8179 71.5311 62.8179C72.9294 62.8179 74.1068 63.095 75.2107 63.5799C76.3146 64.0649 77.1977 64.7577 77.9336 65.589C78.6695 66.4203 79.2583 67.4595 79.6262 68.6373C79.9942 69.815 80.215 70.9927 80.215 72.309V83.4628C80.215 83.8785 80.1414 84.2249 79.9206 84.4327C79.6998 84.6405 79.4055 84.7791 78.9639 84.7791H74.7692C74.254 84.7791 73.8861 84.7098 73.6653 84.502C73.4445 84.3634 73.3709 84.017 73.3709 83.5321V72.4476C73.3709 71.9626 73.2237 71.4777 73.003 71.062C72.7822 70.6463 72.4878 70.2306 72.0463 69.8843C71.6047 69.5379 71.2367 69.2608 70.7216 69.1222C70.2065 68.9144 69.7649 68.8451 69.2498 68.8451C68.8082 68.8451 68.3666 68.9144 67.9251 69.1222C67.4835 69.33 67.042 69.5379 66.674 69.8843C66.3061 70.2306 65.9381 70.577 65.7173 70.9927C65.4966 71.4084 65.2758 71.8933 65.2758 72.4476V83.5321C65.2758 83.7399 65.2022 83.9477 65.1286 84.0863C65.055 84.2941 64.9078 84.4327 64.7606 84.502C64.6134 84.5712 64.4663 84.6405 64.3191 84.7098C64.1719 84.7098 64.0247 84.7791 63.8039 84.7791H59.6828C59.1676 84.7791 58.7997 84.6405 58.5789 84.4327C58.3581 84.2249 58.2109 83.8785 58.2109 83.4628V64.4113C58.2109 64.2034 58.2845 63.9956 58.3581 63.7878C58.4317 63.5799 58.5789 63.4414 58.7997 63.3721L58.8733 63.4414Z" fill="#253141"/>
<path d="M99.2753 78.1424C99.4225 78.0039 99.5697 77.9346 99.7904 77.9346C99.9376 77.9346 100.085 77.8653 100.158 77.8653C100.379 77.8653 100.526 77.9346 100.747 78.0039C100.894 78.0731 101.115 78.281 101.262 78.4888L103.323 81.3985C103.396 81.4678 103.47 81.6063 103.47 81.6756C103.544 81.8142 103.544 81.8834 103.544 81.9527C103.544 82.2298 103.47 82.4377 103.249 82.5762C103.102 82.7148 102.881 82.8533 102.661 82.9919C101.704 83.6154 100.6 84.1696 99.4225 84.5853C98.245 85.001 96.9939 85.1395 95.6693 85.1395C94.5654 85.1395 93.5351 85.001 92.5048 84.7238C91.4745 84.4467 90.5914 84.1003 89.7083 83.6154C88.8252 83.1304 88.0157 82.5762 87.3534 81.8834C86.6174 81.1907 86.0287 80.4286 85.5136 79.5973C84.9984 78.7659 84.6305 77.8653 84.3361 76.8954C84.0417 75.9255 83.8945 74.9556 83.8945 73.9164C83.8945 72.8773 84.0417 71.8381 84.3361 70.8682C84.6305 69.8983 84.9984 68.9977 85.5136 68.1663C86.0287 67.335 86.6174 66.5729 87.3534 65.9494C88.0893 65.2567 88.8988 64.7024 89.7083 64.2175C90.5914 63.7325 91.5481 63.3861 92.5048 63.109C93.4615 62.8319 94.5654 62.6934 95.6693 62.6934C96.9939 62.6934 98.1714 62.8319 99.3489 63.1783C100.453 63.5247 101.483 64.0096 102.513 64.6332L102.44 64.5639C102.734 64.7024 102.881 64.9103 103.102 65.0488C103.249 65.2567 103.323 65.4645 103.323 65.8109C103.323 66.0187 103.249 66.2265 103.102 66.4344L101.483 68.9977C101.115 69.5519 100.747 69.829 100.232 69.829C100.158 69.829 100.011 69.829 99.864 69.7597C99.7168 69.6905 99.4961 69.6212 99.3489 69.4826C98.8337 69.1362 98.245 68.8591 97.6563 68.6513C97.0675 68.4435 96.4052 68.3049 95.7429 68.3049C95.0069 68.3049 94.271 68.4435 93.6087 68.7206C92.9464 68.9977 92.4312 69.4133 91.9897 69.8983C91.5481 70.3832 91.1802 71.0067 90.9594 71.6303C90.7386 72.323 90.5914 73.0158 90.5914 73.7086C90.5914 74.4707 90.7386 75.1634 90.9594 75.7869C91.1802 76.4105 91.5481 77.034 91.9897 77.4496C92.4312 77.9346 93.02 78.281 93.6087 78.5581C94.271 78.8352 94.9334 78.9738 95.7429 78.9738C96.4052 78.9738 97.0675 78.8352 97.6563 78.6274C98.0978 78.7659 98.6866 78.4888 99.2753 78.1424Z" fill="#253141"/>
<path d="M106.193 73.9994C106.193 72.9603 106.341 71.9211 106.635 70.9512C106.929 69.9813 107.297 69.0807 107.812 68.2493C108.328 67.418 108.916 66.6559 109.652 66.0324C110.388 65.3397 111.198 64.7854 112.081 64.3005C112.964 63.8155 113.921 63.4691 114.951 63.192C115.981 62.9149 117.011 62.7764 118.115 62.7764C119.734 62.7764 121.28 63.0535 122.752 63.6077C124.223 64.1619 125.475 64.9933 126.505 65.9632C127.609 67.0023 128.418 68.1801 129.007 69.4964C129.596 70.8819 129.964 72.3368 129.964 73.9302C129.964 74.9693 129.816 76.0085 129.522 76.9091C129.228 77.8097 128.86 78.7796 128.345 79.611C127.829 80.4423 127.241 81.2044 126.505 81.8972C125.769 82.5899 124.959 83.1442 124.076 83.6291C123.193 84.1141 122.236 84.4605 121.28 84.7376C120.249 85.0147 119.219 85.1532 118.115 85.1532C117.011 85.1532 115.908 85.0147 114.951 84.7376C113.994 84.4605 112.964 84.1141 112.081 83.6291C111.198 83.1442 110.388 82.5899 109.652 81.8972C108.916 81.2044 108.328 80.4423 107.812 79.611C107.297 78.7796 106.929 77.879 106.635 76.9091C106.341 75.9392 106.193 75.0386 106.193 73.9994ZM112.743 73.9994C112.743 74.7615 112.89 75.4543 113.111 76.0778C113.332 76.7013 113.7 77.3248 114.141 77.7405C114.583 78.2254 115.172 78.5718 115.76 78.8489C116.423 79.126 117.159 79.2646 117.968 79.2646C118.778 79.2646 119.44 79.126 120.102 78.8489C120.765 78.5718 121.28 78.2254 121.721 77.7405C122.163 77.2555 122.531 76.7013 122.752 76.0778C122.972 75.4543 123.12 74.6922 123.12 73.9994C123.12 73.3067 122.972 72.6139 122.752 71.9211C122.531 71.2283 122.163 70.6741 121.721 70.1891C121.28 69.7042 120.765 69.2885 120.102 69.0114C119.44 68.7343 118.778 68.5957 117.968 68.5957C117.159 68.5957 116.423 68.7343 115.76 69.0114C115.098 69.2885 114.583 69.7042 114.141 70.1891C113.7 70.6741 113.332 71.2976 113.111 71.9211C112.89 72.5446 112.743 73.2374 112.743 73.9994Z" fill="#253141"/>
<path d="M0 47.0418V26.3276C0 19.469 5.88737 13.9268 13.173 13.9268V34.641C13.0994 41.5688 7.21203 47.0418 0 47.0418Z" fill="#253141"/>
<path d="M0 12.4008V19.9521C0 13.0936 5.88737 7.55133 13.173 7.55133V0C5.88737 0 0 5.54226 0 12.4008Z" fill="#F37237"/>
</svg>
