<svg width="30" height="30" viewBox="0 0 30 30" fill="none" xmlns="http://www.w3.org/2000/svg">
<path fill-rule="evenodd" clip-rule="evenodd" d="M3 15C3 16.5913 3.63214 18.1174 4.75736 19.2426C5.88258 20.3679 7.4087 21 9 21H13.5V25.5C13.5 25.8978 13.658 26.2794 13.9393 26.5607C14.2206 26.842 14.6022 27 15 27C15.3978 27 15.7794 26.842 16.0607 26.5607C16.342 26.2794 16.5 25.8978 16.5 25.5V21H21C22.5913 21 24.1174 20.3679 25.2426 19.2426C26.3679 18.1174 27 16.5913 27 15C27 13.4087 26.3679 11.8826 25.2426 10.7574C24.1174 9.63214 22.5913 9 21 9C21 7.4087 20.3679 5.88258 19.2426 4.75736C18.1174 3.63214 16.5913 3 15 3C13.4087 3 11.8826 3.63214 10.7574 4.75736C9.63214 5.88258 9 7.4087 9 9C7.4087 9 5.88258 9.63214 4.75736 10.7574C3.63214 11.8826 3 13.4087 3 15ZM16.5 21H13.5V14.121L11.5605 16.0605C11.2776 16.3337 10.8987 16.4849 10.5054 16.4815C10.1121 16.4781 9.73588 16.3203 9.45777 16.0422C9.17966 15.7641 9.02191 15.3879 9.01849 14.9946C9.01507 14.6013 9.16626 14.2224 9.4395 13.9395L13.9395 9.4395C14.2208 9.15829 14.6023 9.00032 15 9.00032C15.3977 9.00032 15.7792 9.15829 16.0605 9.4395L20.5605 13.9395C20.8337 14.2224 20.9849 14.6013 20.9815 14.9946C20.9781 15.3879 20.8203 15.7641 20.5422 16.0422C20.2641 16.3203 19.8879 16.4781 19.4946 16.4815C19.1013 16.4849 18.7224 16.3337 18.4395 16.0605L16.5 14.121V21Z" fill="#595959"/>
</svg>
