<svg width="62" height="62" viewBox="0 0 62 62" fill="none" xmlns="http://www.w3.org/2000/svg">
<path d="M17.6895 47.6626C13.5298 47.6653 9.51922 46.1142 6.44462 43.3135C3.37002 40.5128 1.45337 36.6647 1.07074 32.5243C0.688116 28.3838 1.86713 24.2499 4.37644 20.9336C6.88576 17.6173 10.5442 15.358 14.6341 14.599C15.3524 10.7767 17.3845 7.32557 20.3788 4.84235C23.3732 2.35913 27.1415 1 31.0322 1C34.9229 1 38.6912 2.35913 41.6856 4.84235C44.6799 7.32557 46.712 10.7767 47.4304 14.599C51.5065 15.3734 55.1478 17.6382 57.6436 20.9514C60.1395 24.2646 61.3109 28.3884 60.9292 32.5183C60.5476 36.6482 58.6403 40.4878 55.5795 43.2879C52.5187 46.088 48.524 47.6477 44.3749 47.6626M21.0252 30.9907L31.0322 20.9877M31.0322 20.9877L41.0392 30.9907M31.0322 20.9877V61" stroke="#6F6F6F" stroke-width="2" stroke-linecap="round" stroke-linejoin="round"/>
</svg>
